<svg xmlns="http://www.w3.org/2000/svg" viewBox="0 0 128 128">
  <defs>
    <linearGradient id="sky" x1="0" y1="0" x2="0" y2="1">
      <stop offset="0" stop-color="#090b16"/>
      <stop offset="0.5" stop-color="#26163d"/>
      <stop offset="0.82" stop-color="#7a2f3c"/>
      <stop offset="1" stop-color="#d9772f"/>
    </linearGradient>
    <linearGradient id="bird" x1="0.15" y1="0" x2="0.85" y2="1">
      <stop offset="0" stop-color="#fff3cc"/>
      <stop offset="1" stop-color="#f0b45a"/>
    </linearGradient>
  </defs>
  <rect width="128" height="128" rx="30" fill="url(#sky)"/>
  <g fill="#ffe9b0" opacity="0.7">
    <circle cx="24" cy="26" r="1.6"/><circle cx="34" cy="19" r="1.2"/><circle cx="17" cy="38" r="1.1"/>
    <circle cx="30" cy="33" r="1.0"/><circle cx="43" cy="16" r="0.9"/><circle cx="13" cy="50" r="0.8"/>
    <circle cx="106" cy="20" r="1.2"/><circle cx="115" cy="30" r="0.9"/><circle cx="98" cy="14" r="0.8"/>
  </g>
  <g transform="translate(64 64) rotate(-12) translate(-64 -64)">
    <path fill="url(#bird)" d="
      M64 14
      C67 17 69 22 70 30
      C86 34 106 52 122 76
      C106 70 90 70 76 74
      C75 80 74 86 74 92
      C77 96 79 101 80 108
      Q64 102 48 108
      C49 101 51 96 54 92
      C54 86 53 80 52 74
      C38 70 22 70 6 76
      C22 52 42 34 58 30
      C59 22 61 17 64 14 Z"/>
  </g>
</svg>
